<mxfile host="app.diagrams.net" modified="2024-05-23T18:49:01.796Z" agent="Mozilla/5.0 (Windows NT 10.0; Win64; x64) AppleWebKit/537.36 (KHTML, like Gecko) Chrome/124.0.0.0 Safari/537.36" etag="MEF-iqNoeHkx_FU74mI-" version="24.4.3" type="github">
  <diagram name="第 1 页" id="V1_zYXy3dCea4DVia8Db">
    <mxGraphModel dx="819" dy="426" grid="1" gridSize="10" guides="1" tooltips="1" connect="1" arrows="1" fold="1" page="1" pageScale="1" pageWidth="3300" pageHeight="4681" math="0" shadow="0">
      <root>
        <mxCell id="0" />
        <mxCell id="1" parent="0" />
        <mxCell id="h-QL1N03Gx9EJs0tnDSq-6" value="初始矩阵A" style="whiteSpace=wrap;html=1;" vertex="1" parent="1">
          <mxGeometry x="70" y="283" width="63" height="26" as="geometry" />
        </mxCell>
        <mxCell id="h-QL1N03Gx9EJs0tnDSq-7" value="epoch 1" style="whiteSpace=wrap;html=1;" vertex="1" parent="1">
          <mxGeometry x="201.53" y="283" width="63" height="26" as="geometry" />
        </mxCell>
        <mxCell id="h-QL1N03Gx9EJs0tnDSq-8" value="epoch 5" style="whiteSpace=wrap;html=1;" vertex="1" parent="1">
          <mxGeometry x="330.5" y="283" width="63" height="26" as="geometry" />
        </mxCell>
        <mxCell id="h-QL1N03Gx9EJs0tnDSq-9" value="真实矩阵" style="whiteSpace=wrap;html=1;" vertex="1" parent="1">
          <mxGeometry x="471.1" y="283" width="63" height="26" as="geometry" />
        </mxCell>
        <mxCell id="h-QL1N03Gx9EJs0tnDSq-11" value="" style="shape=image;verticalLabelPosition=bottom;labelBackgroundColor=default;verticalAlign=top;aspect=fixed;imageAspect=0;image=data:image/png,iVBORw0KGgoAAAANSUhEUgAAATMAAAEECAYAAABEJ9NLAAAAAXNSR0IArs4c6QAAAARnQU1BAACxjwv8YQUAAAAJcEhZcwAADsMAAA7DAcdvqGQAABxsSURBVHhe7d17VJT3ncfx/XN3z+7Z3bP3PVuj0bK97PbKtqd72qZ0e9uuBpO2aTRk27TRtPYSGtOW1rjJJsXWtJY0REC8BJGYREQjeAflqgKOXLzgBVFUQESNgoPghXz3+T7PbxQQf47+fo/5PsPnc877yAw8WqO++swMM/NHhGEYFgMDZhiGxcSAGYZhMTFghmFYTAyYYRgWEwNmGIbFxIAZhmExMWCGYVhMDJhhGBYTA2YYhsXEgBmGYTExYIZhWEwMmGEYFhMDZhiGxcSAGYZhMTFghmFYTAyYYRgWEwNmGIbFxIAZhmExMWCGYVhMDJhhGBYTA2YYhsXEgBmGYTExYIZhWEwMmGEYFhMDZhiGxcSAGYZhMTFghmFYTAyYYRgWEwNmGIYZLyUlhRISEtyqq6vVtUM3d+5cmjZt2rVOnDihPmNnwAzDMKOFQiFKSkqi7u5uampqovj4ePWZoZsxY8ZNobMxYIZhmNGys7OpoKBAXSIXtq6uLnXp+hiz9PR030ATi9mVK1eov7838HV0nqF9B04EvgOH2ke8PmjFyu+j58JF9S/lztbfz/++9B09esw9yxpecXGx+lm8paWlDbmOb3K2traqS9eXk5PjYsaf55/n1KlT6jN2JhYzhoDoYOBb/Npq+uP3PBz47ps8e8Trg1bC5GdHvD5obS5tdP5+3dneeecd+vTEZ+hPxkzRNi+jyL3ZOLy2tjb1M3njM7PBmPEZWEdHh7o08hi2RYsWqUt2Bsx8DpjJCph5mH1m0mwHrKnaGLNolpeX5+IUGT8I0NvL/35vPsZvzpw56pKdATOfA2ayAmYeZp+d9Cz96ZhHtc3LWKuO0C8cDl+7+ck3I/nMLLLU1FT314t8zPeXMXwM3u7du93rbQ2Y+RwwkxUw8zC7L/F5+rOx39b2+8z16ohbr729nUpKStwuXrx+f15zc/M1zKqqqqioqMj9Gv562wNmPgfMZAXMPMw+l/gC/fm472i7HcwkDJj5HDCTFTBTmE1OdcB6XFta5gZ1RDAGzHwOmMkKmHmYJTzwa/qL8dO1pWVtVEcEY8DM54CZrICZh9nnH/gN/eX472l7KWuTOiIYA2Y+B8xkBcw8zP7zwd/SX034obaXsoZ+c6z0ATOfA2ayAmYeZl/42jz667gntf1hQYk6IhgDZj4HzGQFzDzMvvi139PfxCVrA2aWBsxkBcxkZYrZl77+Ev3tvzyl7eUFW9QRwRgw8zlgJitg5mH25W+8TH/3vqe1vZy9VR0RjAEznwNmsgJmHmZfeWg+/f37U7SlZ5epI4IxYOZzwExWwMzD7L8eyqB/+MAsbekLy9URwRgw8zlgJitgpjD7Zhb94wdna3tlYYU6IhgDZj4HzGQFzDzMvvrNbPqnDz6rDZhZGjCTFTCTlSlm//3wQvrnf3tO2/xFleqIYAyY+RwwkxUw8zCbOGUxvedDL2ibv6hKHRGMATOfA2ayAmYeZvdPfZXu+fAcbRmLt6sjgjFg5nPATFbATGH2yFIa+5G52jIW71BHBGO+YNbX10cHDx6k2tpaqqysdH88f/68+mx0A2ayAmayMsUs8ZFlNO4jv9WWudi/97j0Y9Yx43cp5tf35tcBj7y1FMfXlZaWqq+69YCZrICZrIwxS8qjcR+dpy1zySjHLDc3d8g7tUTGb0/FoEU7YCYrYCYrU8wmJy2nez+Wpi1zSY06Ihizjll+fv6QdzeOjN+VZfr06erSrQfMZAXMZGWK2YOPvkkTPv6ytqxXd6ojgjHrmJ05c8Z926nIW7Fz/BZTiYmJuJkZ4ICZrIwx+58V9N74V7QteDWkjgjGfHkAgMfvfFxTU0MNDQ1uPT096jPRDZjJCpjJyhizb+XTez8xX9uCHGBmZcBMVsBMVsaYPeZg9kkHLU3AzNKAmayAmayMMfvOSnrvpzK0LVgKzKwMmMkKmMnKGLPHC2jCp7O0ZeXuUkcEY8DM54CZrICZwmyag9lnHLQ0ZS0DZlYGzGQFzGRljNn0VTThvgXagJmlATNZATNZGWP2hIPZ57K1ZeXVqSOCMWDmc8BMVsBMYfY9B7MEBy1NwMzSgJmsgJmsjDGb8RZN+MIibVnL69URwRgw8zlgJitgpjD7gYPZFx20NN0uZvzzvpsDZj4HzGQFzBRmP1pDE768WFvW69FhFg6HKSUlxX3KIj+VkZ+HrVt2drb7ohO3+6ygWw2Y+RwwkxUw8zB74McOZl9x0NIULWahUIiSkpKou7vbfRojg3az8ecZPv4a/nqbA2Y+B8xkBcwUZk8W0vivLtGW9UaDOkI/PtMa/Eo5DFtXV5e6dH2MF78ARQQ8YBawgJmsgJnCLLmIxk98Vdvc7HKKi4u7oeEv8ZWWlkbFxcXqErlnXq2trerS9fHrHEZe6xCYBTBgJitgpjB7ai2Nv3+ptqwVje5Z1PD4hVYHj8/MBmPGZ18dHR3qkrf+/n73jI2P5Rgz/rlsDpj5HDCTFTBTmM10MJvsoKUpKz+6XyMvL2/Iq0vznfu9vfzv9/oYM0YuEp/h8Y9Xr15VX2E+YOZzwExWwExh9rSD2QO52qLFjB/NjNz85JuYXGT8wqz86w0fbmYGMGAmK2CmMPvpOhr/4DJtWfm71RG3Xmdnp/tObI2Nje67s0XG952NhNm+ffvUR/YGzHwOmMkKmCnMfr6exn8jT1tWQfSYSRgw8zlgJitgpjBLcTB7yEFLEzCzNGAmK2AmK1PMJv9yA9378GvaMlftUUcEY8DM54CZrICZwmzWRrp3ynJtmauBmZUBM1kBM1kZY/aMg9kjDlqagJmldXSeoXmZywPfirc20Mqi9YHvyVnZLmhBb+Ijc0a8PmiVVe1V/1Jufy5mszfRvY++ri3zrTv/Nd6NicVs34ETI/4/UtDKzl3p/G5GPmsLUgzzSL+/oIUzM4XZs5vp3m+9oS1zDTCzMmAmK2AmK2PM/s/B7LEV2jILgZmVATNZATNZGWP2fDGN++4KbZlF9r+x1c8BM58DZrICZh5miS84mD2erw2YWRowkxUwk5UxZr8qoXHTV2rLXAvMrAyYyQqYycoYs19voXHfL9CWud7uS/T4PWDmc8BMVsBMYfabrTTuB6u0ATNLA2ayAmayMsbsxVIa96PV2jI37FdHBGPAzOeAmayAmcLst6U09sdvacvYCMysDJjJCpjJyhizeWU09icOWpoyNgEzKwNmsgJmsjLGLK2cxj5dqC1j8wF1RDAGzHwOmMkKmCnMXqqgsT8t0gbMLA2YyQqYycoUs/tfdjD7uYOWpoxi/rMPzoCZzwEzWQEzhVl6Jd3zi3XaMkr4zz44A2Y+B8xkBcwUZq9U0T2z1mvL2HJIHRGMATOfA2ayAmYKs4xtdM/sDdoytgIzKwNmsgJmsjLGLMvB7LmN2jJKm9URwRgw8zlgJitgpjDL3k73PL9JW0YZMLMyYCYrYCYrU8wmLdxBY17YrA2YWRowkxUwk5UxZosczFIdtDRllB9WRwRjwMzngJmsgJnCbEk1jfl1sbaMCmB20/X19amPbj1gJitgJitjzHJqaMyLW7RlVLaoI4Kxu4ZZd3c3JScnq0u3HjCTFTCTlTFmubU05ncOWprmV41yzBobG2nGjBk3lJSUBMwCHDCTlSlmE5ftpPfM26pt/rZRjllxcTGlpqZSdXX1kPh6YBbcgJmsjDHLczBLK9U2f9sRdUQwZh2zgwcPUkpKirp0fbiZGeyAmayMb2YuD9GYl8u0Zey4PcwGBgbURzdfNF9zp/PlPjP+j2U6YCYrYCYrU8zufyNEY18p0xYtZuFw2D2BSUxMpLi4OPeW2EjjW2x8dxN/Hd/1dPLkSfUZO7trDwDc7oCZrICZrEwxS3QwGze/TFtmdXSYhUIhFye+9dXU1ETx8fHqMzdfeno6LV26VF2yM2Dmc8BMVsDMw2zymyG6N6NcW7SYZWdnu/eJR8ZnX11dXerSjWP0gFkAA2ayAmYeZg+sCNH4zHJtczfXuzcbh1dQUKB+Jm9paWlDMOObnK2trerS0PHn+MyNb2raHjDzOWAmK2DmYfZgfogmZJVry6o5Qm1tbTfEZ1aDN/zMjG9ydnR0qEsjj1GbO3euumRnwMznsoGZqICZh9nXCkIUt7Bc24La6G5m5uXlUU5OjrpElJCQQL29verSyOMHCWbPnq0u2Rkw8zlgJitg5mH2jVUhet+icm3ZO6N/NJNvfjJofMbFRTZr1iz31+Pxo5l8E5W/jsGrrKx0r7c1YOZzwExWwMzD7KHVIXr/4nJt0WLG6+zsdHHiZwANfg4233cWwYy/B5W/pra21v162wNmPgfMZAXMPMy++dYu+sCScm0LQ0fVEcEYMPM5YCYrYOZh9nDhLvrXnApti3YBMysDZrICZrIyxWxK0S760LIKbYvqgJmVATNZATNZmWI2de0u+nBehbbFwMzOgJmsgJmsTDF7ZN0u+uhrFdqAmaUBM1kBM1mZYpa0fhd9bHmFtiX1wMzKgJmsgJmsTDF71MHs469XaANmlgbMZAXMZGWK2bc21dG/r6jU9mojMLMyYCYrYCYrU8y+vbmOPpFfqS0HmNkZMJMVMJOVKWaPOZh9cmWltpzdwMzKgJmsgJmsTDH7TnEdfaqgUttSYGZnwExWwExWpph9t6SO/mN1pbbcPcDMyoCZrICZrEwxe3xrHX16TaW23L3AzMqAmayAmaxMMZtWWk+fLarStmzvyK8WK3XAzOeAmayAmYfZ9LJ6um9tlbZl+4CZlR041E73TZ4d+L7/swwXgqC3aWsprSxaH/ienLVgxD+noFVWtVf9S7n9MWZPlNfT59ZVacsDZnYWK2dmn5n0zIjXBy2GYKQztqD17NxXR/z9BS3TM7PvVdTT59dXaXutCZhZGTCTFTCTlSlmP6ysoy9trNS2fD8eALAyYCYrYCYrU8x+VFVHX9lUqe11YGZnwExWwExWppg96WD2VQcsXW8AMzsDZrICZrIyxewn23bRxM0V2t48AMysDJjJCpjJyhSzp7bvosTiCm0rgJmdATNZATNZmWL2tIPZAyUV2vKBmZ0BM1kBM1mZYvbz6hB9fUu5tpUHo3/fTAkDZj4HzGQFzDzMUhzMHtparq0AmNkZMJMVMJOVKWa/rAnRw6Vl2lYBMzsDZrICZrIyxewZB7OpZWXaVh8CZlYGzGQFzGRlitns2hA96oCl6y1gZmfATFbATFammD23cyc9VlGqrbAZmFkZMJMVMJOVKWbPh3bSdytLtRUBMzsDZrICZrIyxexXDmbTHLB0rW1uUUcEY8DM54CZrICZh9mcXbX0RNVWbesO3x5mAwMD6qObL5qvudMBM58DZrICZh5mv6mrpRnbtmpbHyVm4XCYUlJSaMaMGZSQkEDFxcXqM0OXmJjoxl/DX2t7wMzngJmsgJmH2Yv1tfTj7Vu1bWiJDrNQKHQNp+7uboqPj3c/Hr6mpib1Eblfv2PHDnXJzoCZzwEzWQEzD7Pf1ddQ8o4t2jZGiVl2dvaQs7GkpCTq6upSl0Zeeno65efnq0t2Bsx8DpjJCph5mP2+oYaeqt6ibUVdHcXFxd1QQUGB+pm8paWlDcGMb3K2tt78Jbf5DI1vavb29qpr7AyY+RwwkxUw8zBLczB7umaLts1HWqitre2G+Kbk4A0/M+ObkB0dHerS0DFkfL/Zze5XM5lvmPX09KiPrq+vr099dOsBM1kBM1mZYvaHxhr6WW2JtuIjh9UR+uXl5VFOTo66RDc962II/YKMZx2zM2fOXHvUgovc6ceaJycnux9HM2AmK2AmK1PM0nfX0C92lmgrORodZvxoJt/pn5qa6p6V8c3MyPjfPP96PEaO709j+LiGhgb3eluzjtnWrVuvKR25bVxdXQ3MAh4wk5UpZvP3VNMzoWJtW6LEjHf69GkXJ/4339/fr64l94GACGZ8P9rght9cNZ11zHJzc6+djfH4f3Dk1BKYBTdgJitTzDL3VtP/7irWtvU2MJMw65jxw62Dbz/zIqABs+AGzGRlitmCfdX0XF2xttLWUY7Z1atXR/wek8uXL9/ye08GD5jJCpjJyhSzhQ5mLzhg6Sob7ZjZGjCTFTCTlSlmi5t20Jz6zdrKW5vVEcEYMPM5YCYrYOZhlrN/B73YuFlb5TFgZmXATFbATFammOUe2EHzdm/WVnUcmFkZMJMVMJOVKWZ5B3dQ2p7N2rYBMzsDZrICZrIyxWz5oe30h32btG0/AcysDJjJCpjJyhSzNx3M5jdt0lYNzOwMmMkKmMnKFLP85u2UtX+jtpo2YGZlwExWwExWppitOrydFh7YqG0nMLMzYCYrYCYrU8xWt2ynJQc3agsBMzsDZrICZrIyxWzNke2Uc2ijtlA7MLMyYCYrYCYrU8yKjm6n3OaN2nYBMzsDZrICZrIyxWzD0W30+uEN2ho6DqkjgjFg5nPATFbAzMNsY+s2WtGyQRswszRgJitgJitTzDYf20Yrj2zQtvskMLMyYCYrYCYrU8y2HK+i1UfXa9sDzOwMmMkKmMnKFLPSE1VUeGy9tr2dwMzKgJmsgJmsTDGraKui9SfWa2s6BcysDJjJCpjJyhSzqvZK2ti2Ttv+U/zfLDgDZj4HzGQFzDzMtjuYFTtg6ToAzOwMmMkKmMnKFLMdHZW0pX2dtoNd/N8sOANmPgfMZAXMPMxqT1ZSWcc6bYeAmZ0BM1kBM1mZYrbrVAVVda7Vdvg0/zcLzsRiduBQOyVMfjbwTXxkzojXB60nZs53IQh6ywvWUUl5aeBrPd6u/qXc/hizegez7afWamsBZnaGMzNZ3Td59ojXBy2GYKQztqDV39/t/HhnY8waHMyqHbB0ATNLA2ayAmayMsWssauCarrWajtyhn+t4AyY+RwwkxUw8zDb7WBW64ClC5hZGjCTFTCTlSlme05XUOh0kbajwMzOgJmsgJmsTDHbd6aC6s8UaWs9e0AdEYwBM58DZrICZh5mTQ5mDWeLtB27TcwGBgbUR+/OgJnPATNZATMPs/0OZo0OWLqixSwcDtOMGTMoKSmJEhISqKCgQH1m6EpKSigxMZHi4uKora1NXWtvwMzngJmsgJmH2YGzFbTn7SJtx6PELBQKuZjxuru7KT4+3v14+C5evOh+nsEDZgEMmMkKmHmYHXq7gvadK9LW3NHg4jO84cvOzqbi4mJ1idwztK6uLnXpxgGzgAbMZAXMPMyaHcyaHLB07T1a494kHN7wm5FpaWlDMEtJSaHW1lZ16cYBs4AGzGQFzDzMDjuY7XfA0tX29oERz8y4wRt+ZsY3OTs6OtSlGwfMAhowkxUw8zBrOVdBB88XaWt3MItmeXl5lJOToy55WPX29qpLNw6YBTRgJitg5mF25Fw5HXLA0hUtZvxoJt/pn5qa6p6V8c3MyJKTk91fj9fS0kLp6enXvra8vNy93taAmc8BM1kBMw+zo+fL6XB3obaOc9F/n1lPTw81NDS4Z1z9/f3qWnIfCIhgxmdrfF9aJN2DBHcyYOZzwExWwMzD7JiD2ZGeQm0nbwMzCQNmPgfMZAXMPMyOd5fT0QuF2oCZpQEzWQEzWZlidsLB7JgDlq5OYGZnwExWwExWppi19ZTT8XChts7zwMzKgJmsgJmsTDFrdzA74YCl6xQwszNgJitgJitTzE46mHX0FmrrAmZ2BsxkBcxkZYpZ54UyOnlxjbaubmBGfX19156bdf78eaqtraWDB/kPIfoBM1kBM1mZYnbKwazTAUvX6dGOGaPFT1fg7wTm7/LlZ9Dzj3xdYWGh+qpbD5jJCpjJyhizcBmd6lujbdRjtm7dumtPOmXI+OkLPH5y6syZM92PoxkwkxUwk5UpZqcdzE4zWJrOjHbMcnNzqampyf2Yz8gGP5t+6tSp6qNbD5jJCpjJyhSzM71ldLZ/jb6eUY5Zfn7+kNc7irxcCP8IzIIbMJOVKWZne8sdsAr1jXbMeFeuXFEfXR8/KKB7WZDhA2ayAmayMsXs7d5KOte/VtvbPfxrBWe+YGZjwExWwExWxphdrKJzl9Zre7vnkDoiGANmPgfMZAXMIphto/OXNmgDZpYGzGQFzGRlitm5izuo+/Imbed6mtURwRgw8zlgJitgFsGs2gGrWNu5nsPqiGAMmPkcMJMVMPMwO3+xhnoul2gDZpYGzGQFzGRlilm3g9mFy1u0netpUUcEY8DM54CZrIBZBLOdDlil2s5fOKKOCMaAmc8BM1kBMw+znr4Qha+UaQNmlgbMZAXMZGWK2YW+Ouq9Uqnt/IWj6ohgDJj5HDCTFTCLYFbvgFWl7fwF72W8gjJg5nPATFbAzMMs3NdAF69s09YNzOwMmMkKmMnKGLP+Ruq7ukNb94Vj6ohgDJj5HDCTFTDzMOvt30P9V2u0dV84ro4IxoCZzwEzWQGzCGZ76dLATm09YWBmZcBMVsBMVqaYXby0zwErpK0nfEIdEYwBM58DZrICZhHMmujyQJ22nnCbOiIYA2Y+B8xkBcwimO13wKrXBswsDZjJCpjJyhSzvksH6MpAg7YL4XZ1RDAGzHwOmMkKmHmY9V86RFff2aPtQrhDHRHdrl69qj66+fhrLl++rC7ZHTDzOWAmK2DmYXbpUjMNvLNXWzh8Uh2hXzgcdt8nl99akt8fd/AbGg0ev2tb5D11+ce2Nrs3Y4GZzwEzWQEzhdnlww5Y+7RFi1koFKKUlBT3Y34Xtvj4ePfj4WPEItDxj5FjbA2Y+RwwkxUwi2DWQu/Qfm1nzra6OA1v+LKzs4e8Py6foXV1dalL1xcXF6c+0qN3pxOLWc+Fi7S5tDHwlVXtHfH6oBUrv4/W4+0uBEHv0qVL6l/Kna2//yz1Xzql7cSJIy5Awxt+MzItLW0IZnzG1do69HmdAwMDN+DFP5fNicUMw7B3f8PPyiIN3vAzM7452dFx44MHgzHjn4PvN7M5YIZhmNFWrVpF6enp6hK5SI30ht+D7/Rn/Bg9mwNmGIYZjR/NZKhycnIoNTXVLbIpU6a499HxGDC+Py3yY3V1tXu9rQEzDMOMx/fhNTc308mTJ4fcn8c3JyOY8c6ePet+Hf9oe8AMw7CYGDDDMCwmBswwDIuJATMMw2JioxazlpYWKikpcZ+KEdTxk3b599HQ0EA9PT3q2uCNv8GS/yy49vZgvVLD4A3+ffCfC3Z3NyoxKy0tvfbQMH+3Mj+kHMTV1ta6D4Pzw+K2H+a+m3vuuefc7yrnh+wTExNv+O7xoKywsND9c4h868GGDRvUZ7C7sVGJ2cyZM92/cDx+6Nj2c8Tu9vz4np13a/x/LHl5eepScMc4z507V13C7sZGJWaTJk0a8vIjjBk/dyyoiyXM+EyTv6M8qGPE+Lvh+bvb6+vr1bXY3dioxIxvlg1+fhlfjuaF5aQuVjDjszJGgL+jPKjjPwf+ffDfqcrKSnUtdjc2KjGbOnWq+0JxkfFfPJyZvbtjAPj3MfxJzEEd//3ip/Jgd2+jErN58+Zde2E4vu/M9hNe7/aCjtny5cvdO/6DDtngV4rgm5pLly5Vl7C7sVGJGX8bA2PGZ2QMge2X771b44f/p02b5sZnAbNmzVKfCdaSk5Pd//2R30tubq76TLDGDyzx3ymO/w+Sn6eI3b2NSswwDIu9ATMMw2JiwAzDsJgYMMMwLCYGzDAMi4kBMwzDYmLADMOwmBgwwzAsJgbMMAyLiQEzDMNiYsAMw7AYGNH/A0s1JJAylG7sAAAAAElFTkSuQmCC;" vertex="1" parent="1">
          <mxGeometry x="40" y="160" width="129.89" height="110" as="geometry" />
        </mxCell>
        <mxCell id="h-QL1N03Gx9EJs0tnDSq-12" value="" style="shape=image;verticalLabelPosition=bottom;labelBackgroundColor=default;verticalAlign=top;aspect=fixed;imageAspect=0;image=data:image/png,iVBORw0KGgoAAAANSUhEUgAAATgAAAD8CAYAAADjcbh8AAAAAXNSR0IArs4c6QAAAARnQU1BAACxjwv8YQUAAAAJcEhZcwAADsMAAA7DAcdvqGQAABhaSURBVHhe7d15cJz3Xcdx/gSGDjDcDE2TJohe9BTtlCm07kApmaamDLSJUQZKaxcELaYJoBJaAh21pJdJ5B45mipuGtOkShPLVyzZsSUlkdXgOI2jVNYRKZZlW7bk1WXJsqwfz/fRs85mve535d/+vN9neX9m3uwhials65VnD+3+hGOMsQodwDHGKnYAxxir2AEcY6xiB3CMsYodwDHGKnYAxxir2AEcY6xiB3CMsYodwDHGKnYAxxir2AEcY6xiB3CMsYodwDHGKnYAxxir2AEcY6xiB3CMsYodwDHGKnYAxxir2KUKuNOnZ93c3EzqGxyfdr3HJ1PfwNiU6zsxmfr6o++j0PeXts4uLiY/KcvfmTNno3+bZ9QWFs4mX5GOpQq4ubmj0f/tSX0f37nPvfm+ttS3avuT7u1N7anv/Q91uTd9py31Tc/NR/++Lm7Dh8fcT112ndrBviPJV6RjAFeGAM5WAOfcoeETEWCr1Hp6AS7YAM5WAGcrP+DG3E9fdr0awAUcwNkK4GzlBVx0E/VnLv8rtZ5e+RlMzwCuDAGcrQBuCbiXXfHXaj19ABdsAGcrgLOVP3AfVQO4gAM4WwGcrXyB+9kr16gdBLhwAzhbAZyt/IAbdz935d+oAVzAAZytAM5WvsD9/FV/r3aw71jyFekYwJUhgLMVwC0B9wtV/6AGcAEHcLYCOFv5ADccAfeLVWvVAC7gAM5WAGcrX+B+6bc+qQZwAQdwtgI4W/kBd9L98qtuVDvYN5p8RToGcGUI4GwFcEvA/cqr69QALuAAzlYAZytf4H71NTep9fYDXLABnK0Azla+wP3aaz+t1tt/PPmKdAzgyhDA2QrgIuBGTrpff+2/qwFcwAGcrQDOVn7AZdxv/PbNagAXcABnK4CzlS9wL3/9Z9UALuAAzlYAZytf4F7xhs+p9fafSL4iHQO4MgRwtgI45w5HwF3+xlvUAO4Cy2Qyrqury7W0tLj29nbX0yM/7MsbwNkK4GzlC9wVb/yiWh/Anb/Gxka3cuVKV19fH59vaGhwtbW1rrq62o2PjyefpQ/gbAVwtvIDbsJd8aYvqy0XuIWFheRceXZJgBPcJiYmkksvTqBrbW1NLukDOFsBnK18gXvlm9ep9fWPJV/x49fd3R3/3NfU1MSncrnQqqqq4o9nP7fUu2TAFZoA19zcnFzSB3C2Ajhb+QJ31VtuU+sbKA44uYXW1NQUn5fTurq6+Hz+5FZcyF0S4OR+txUrVsTfpKAmN1XlD0Dg4yZqegM4W/kC95vV69WefmYwvjWWX/7k5314eDg+Lx+/EGRyvdxt1dnZmVxT2l2yBxkmJyfjw9S9e/e6/fv3u/7+/gisueSjxQ3gbAVwtvIG7q1fVfvSV+6Mb1bml4+cXJc7gWxxcTG59OLkgEcOgOTgRz5nuSZou2TAlWIAZyuAs5UXcEci4N4WIaYkN1Fzj9yy5S//iC0fvEKTW3Vy8FPKAVwZAjhbAVwC3Nu/plbsfXBy91P2Jmr2AQdtApzcsivlAK4MAZytAG4JuKve8Q21voHi7jOXm53Z+9cEN7ksm52ddevWrYvPy/3vcn989kGIYhBc7gCuDAGcrQAuAe73IsSU+p4v/kHB48ePxzc55TQ7uR9udPTF15STo7vs55T6/jcZwJUhgLMVwAlwk+6qd96uthzgLAzgyhDA2QrgEuDedYcawAUcwNkK4GzlDdyKCDElgAs4gLMVwNnKC7ijEXB/cJcawAUcwNkK4GzlDdwfRogp9Q0CXLABnK0AzlbewP3RN9UALuAAzlYAZytv4N4bIaYEcAEHcLYCOFv5Anfl1XerAVzAAZytAM5W3sC971tqABdwAGcrgLOVN3Dvv0etb+hk8hXpGMCVIYCzFcAlwP1JhJgSwAUcwNkK4GzlBdyxCLgPbFADuIADOFsBnK28gfvTb6sBXMABnK0AzlbewP35vWoAF3AAZyuAs5U3cB+MEFMCuIADOFsBnK38gJtyr7z2O2p9LwBcsAGcrQDOVt7AXXefGsAFHMDZCuBs5Q3cX0SIKQFcwO0ZPOzuOfBs6ntypNftGPhR6rtxz363uvWp1Pehz21019z0rdQ3deriX/L78GgE3PUb1QAu4G7fP+Cqv9ue+kYm+6LvpvDRXZr62K59BY+I0tbr3n2D+8mXX5v6JqdORX8vF7cYuL/8HzWACziAsxXA2cobuA/fr9Z3COCCDeBsBXC28gXuio/cr9Z3KJN8RToGcGUI4GwFcAlwH31ADeACDuBsBXC28gZuzffUAC7gAM5WAGcrL+COR8D9bZNa3zDABRvA2QrgbOUN3N89qAZwAQdwtgI4W3kD9/Hvqy0HuMHBQdfV1RWfahsaGoor9QCuDAGcrQBuCbjLP/GQWm+RwDU1NbmVK1e6lpYWV1NTE59eaMPDw27FihXx55V6AFeGAM5WAJcA948RYkrFAie4dXd3x+cnJiZcdXV1fL7QamtrXWNjI8ABnK0AzlZ+wE27y2/cpNa0bY9raGg4L0Esd1VVVcm5pV0IOIFN6uzsBDiAsxXA2coLuBMRcP/UrNa0rS0+4sovF7jFxcXzQMsHT5bJZM59LcBFAzhbAZytvIH7lwgxpd7DLz1Su9AEuCx6cir3seWvvb09Rq2uri6GTr5m48aNyUdLM4ArQwBnK4BzbjgC7hWf2qJWLHCCltx0lckDDgKYbGFhwc3Ozsbn5VTup5Oy98ENDAzEHyvVAK4MAZytAC4B7qatasUCJ0dtAlb20VF5pFQmwK1duzY+n7uenh63Zs2a5FLpBnBlCOBsBXAJcJ/eptY7UhxwVgZwZQjgbAVwCXA3b1cDuIADOFsBnK28gBuLgPvPR9QALuAAzlYAZytf4C777A41gAs4gLMVwNnKG7j6CDGl3iMAF2wAZyuAs5U3cJ9vUQO4ZWxycjJ+2LjYAZytAM5WfsDNuMu+sFOt98hk8hXpWFmBkycA7t27N7mkD+BsBXC28gbuSxFiSgBXYLfccsu531nLTV5xAODSG8DZygu48Rn38i/vUgO4Alu9enX8elDyC7W51dfXA1yKAzhbeQO37lG13qMAd97Wr18fg5Y/QQ/g0hvA2coXuMtu260GcBeYvISK7wDOVgBnKx/gDkfAXb5+txrABRzA2QrgbOUL3BVf3a3WB3DhBnC2Ajhb+QL3yq/tUQO4gAM4WwGcrXyBu/Lre9QALuAAzlYAZytf4K76xh61vmMAF2wAZyuAs5UXcCdnXNWde9QALuAAzlYAZytf4F511x41gAs4gLMVwNnKF7hXf3OPGsAFHMDZCuBs5Qvca+7eo9YPcOEGcLYCOFv5ADcSAfe6xja1/lGACzaAsxXA2coXuNd/u00N4AIO4GwFcLbyBe4N97apAVzAAZytAM5WXsBlZtybvtOmBnABB3C2Ajhb+QL35vva1AAu4ADOVgBnK1/g3rKxTW0A4MIN4GwFcLbyBe537m9XGzgOcMEGcLYCOFv5AvfWB9rVigVO3lDq5ptvdqtWrXI33HBDcu35k49fc801bs2aNe6+++5Lri3dAK4MAZytAM65IxFwb/teu1qxwDU0NLjGxsb4vJzW1dXF5/M3MfHi2xCuWLHCZTKZ5FJpBnBlCOBsBXBLwBX6s8mvWOAEq+Hh4fi8IFZdXR2fv9Dkc2pqatzg4GByTWkGcGUI4GwFcEvA/e7329W+cmdjjFd+uUdisqqqquTc0vIv507eXU8AzB7xlXIAV4YAzlYAFwE3MePe8XC72oHBw+e9O16hN5RaDnAy+f8hUB49ejS5pjQDuDIEcLYCuCXgfr+5Q+35i7iJ2t3dHR+laZO3EW1vb08ulWYAV4YAzlYAtwTcOzd3qD1/ovgHGQQ1eWtQeZN3uSxbWFiIr5PJI61NTU0xgHKd3Ez9f30f3D1PDblrH9qX+j7/6A/d1x9Lfx1DPa51MP1d/4WH3dX/ujH1TU3PJj8py58A964tHWrFAifbtWuX27BhQ3yanbx9aPa9kOfn592WLVviz5HTQ4cOxdeXcqkC7r8f7y/4VmZp6+q7O91l/9Wa+sam+6O/lcJHd2nqPQ1t7hWf2Zb6pmZPR9/PxU2Ae/fWDrXlAGdhAFeGAM5WAOfc0Qi492xvVxsEuHADOFsBnK18gXvvI+1qABdwAGcrgLOVL3BXR4BpAVzAAZytAM5WvsC9b0ebGsAFHMDZCuBs5QvcypY2tSGACzeAsxXA2coHuGMRcB9obVMDuIADOFsBnK28gJuccX+2c4/a0BjABRvA2QrgbOUL3Ad37VEDuIADOFsBnK18gbv20d1qLwBcuAGcrQDOVr7Ardq9Ww3gAg7gbAVwtvIBbjQC7voIMC2ACziAsxXA2coXuA+3Pap2CODCDeBsBXC28gXuI+2PqgFcwAGcrQDOVr7ArY4A0wK4gAM4WwGcrXyB+1jHLjWACziAsxXA2coHuOMRcLWP7VIbHge4YAM4WwGcrXyB+8Tju9QALuAAzlYAZytf4NY+sVMN4AIO4GwFcLbyBe6TnTvVAC7gAM5WAGcrH+BORMDduHen2mGAK7wzZ87EbxOWO7ksbyNW7ADOVgBnKz/gpt0/d7WqAVyByXsfyhvByvskStm3+Zfrs28hVswAzlYAZysv4Kam3ad+0KoGcAVWU1Nz7l2uGxsbzyEHcOkO4GzlC9y/PdmiNjK+dHCSll0S4OQdq3PX2dkZH9EJdgCX3gDOVr7AfeZ/W9QArsAEs+wRXHaCXFVVFcClOICzlS9wN+9rUQO4AstkMm5mZia59OLk+tnZ2eSSPoCzFcDZyge4sQi4z0aAaY2cLB44+fkeHR118/PzyTXnTz5nZGSkoA+l2CUBrlQDOFsBnK18gfvcUzvUjhQJnNxCk/ve6+vr41twcjl/gl/2c2pra+NKPYArQwBnK4BbAu4LT+9QKxY4gaulpSU+L6dyWZtAWOojOYArQwBnK4BzbjwC7ss/3KH2dM/B+Ggsv/wJVtnJMybyH2jMn3yOPLsC4AqAkbYAzlYAtwTcumd2qN37wP0xXvlln9uaXT5ocnlxcTG5dP7q6urim6qlHsCVIYCzFcAtAXfrs4+oHS3yJmoucIKfIHihCWwhcJMBXBkCOFsB3BJwX+1+RK1Y4OSILHsfnDyhP/sAghzF5R7JNTQ0xLjlHwGWagBXhgDOVgAXATc97b7x3Ha1Y0UC193dHT/PVWCTo7fs/XTytLC1a9fG58fHx+MjPXkAIvsoqjyyWsoBXBkCOFsBnHMnI+Du/NF2tWOZ5R1pyYMG+S+okXtZzuf24+6nu5gBXBkCOFsB3BJwd/dsV1sucOUewJUhgLMVwC0B13hwuxrABRzA2QrgbOUL3Ibe7WqjABduAGcrgLOVD3CZCLiNfdvUAC7gAM5WAGcrX+Du79+mBnABB3C2Ajhb+QL3vYFtascBLtwAzlYAZytf4L7//FY1gAs4gLMVwNnKB7iJCLhNQ1vVjgf6jYNQA7gyBHC2ArgIuJlpt/XQVrUTABduAGcrgLOVL3Dbh7eoAVzAAZytAM5WvsC1RIBpAVzAAZytAM5WvsDtPLxFbQzgwg3gbAVwtvIBbjICbvfIFjWACziAsxXA2coXuI6jm9UALuC+/fSQu37zvtT3of+43/3xx7+Z+m7reNJ9/ekDqW/zgWdd28HnUt/c6Qu/PZ82Ae7xY5vVxgEu3G7fP+Cqv9ue+t616ovuZVd8JPVd+9Dj7u1N7alv5nRf9K+r8NFdmjpz5kx0enET4DojwLQALuAAzlYAZytf4PaOblYbnwS4YAM4WwGcrXyAm4qA64oA0wK4gAM4WwGcrXyBe/J4sxrABRzA2QrgbOUL3FMnmtVOAly4AZytAM5WvsDtH2tWA7iAAzhbAZytfIF7OgJMC+ACDuBsBXC28gXumfFmNYALOICzFcDZygu4U9Pu2ZPNagAXcABnK4CzlQ9w0xFw3RFgWgAXcABnK4CzlS9wz0WAaWUALtwAzlYAZytf4HoyzWrFAjc9Pe0efPBBt27dOnfvvfcm156/np4e19zc7FpbW5NrSjuAK0MAZyuAWwLuYASYVmYyk3zFj19DQ4Orr693ExMTrq6uzjU2NiYfeenuuOOO+HNXrlyZXFPaAVwZAjhbAdwScH0Tm9SKBW7FihVueHg4Pi/IVVdXx+cLrbu7G+BkAGcrgLOVL3ADk5vUtj2yxdXW1p6XIJa7qqqq5NzS8i/nDuCSAZytAM5WvsA9P7VJ7WB/T3xzM7/8AdxFDOBsBXC28gVuKAJMa2Jq+TdR5VQuX2gAlwzgbAVwtvIF7oXpTWrFAicPMEgyeRBBki0sLLjBwcH4vGxkZMR1dnaeA/H06Yt/2fVCA7gyBHC2AjjnZiLgDkWAaRULnOyWW25xq1evduvXr3dTU1PxdQLcAw88EJ+Xbdiw4RyG0ujoaPKR0gzgyhDA2QrgloAbmdmkthzgLAzgyhDA2QrgloA7cuphNYC7wOR2dyaz9Icj57u6us5dLnYAZyuAs5UvcEcjwLQArsDkDsaampr4jkR5SFnOy+1teeh4fHw8+Sx9AGcrgLOVL3DHZh9WA7gCk4eA5YmAkqCWffi4qanJdXR0xOeLGcDZCuBs5Qvc8QgwrUmAO3+5z4HJfb6LPP8l9xEVbQBnK4CzlS9wY3MPqwFcgQlw+b/KIZMjuOW8igDA2QrgbOUP3CY1gCsw+YMv9Ic/OTnp5ufnk0v6AM5WAGcrH+BORcCdnNusNjnF68EFG8DZCuBs5Q3c6a1qABdwAGcrgLOVL3CZ09vUAC7gAM5WAGcrX+Am5h9RA7iAAzhbAZyt/IFrUQO4gAM4WwGcrXyBm5xv1ZuaTL4iHQO4MgRwtgI4AW7GTc3v1AO4cAM4WwGcrfyBe1QP4MIN4GwFcLbyAm52xk2f2a0GcAEHcLYCOFv5AjdzJvqzUAK4gAM4WwGcrfyB61ADuIADOFsBnK18gTt15jG17EuPp2UAV4YAzlYAtwTc7MITalPTABdsAGcrgLOVL3BzC3vVAC7gAM5WAGcrP+BOudNnf6AGcAEHcLYCOFv5A/ekGsAFHMDZCuBs5Qvc/Nl9agAXcABnK4CzlT9wT6lNTU8nX5GOAVwZAjhbAZxzsxFwZ87uVwO4gAM4WwGcrXyBW1h8Rm16GcAtLCwU9ZYE8nlSiAFcGQI4WwHcEnBnFw+oFQucvGOevINebW2tq66uji8XmrxPsnyOvFeynJZ6AFeGAM5WAJcF7lm1YoETrORd82RyWldXF5/PnRzd5b7jnnzNE088EZ8v1QCuDAGcrQBOgJt1i+45tWPHjpx7E/fc8idwZd/gXT4uR3H5Gx0djY/cshMIl/M+ycUsVcAdnphxj71wIvV17Ot3LbsPpL7O54+6xw+dSH1TMxk3NzeR+hYXF5OflOVPcJw7fUztnnvucVVVVeeVj5xclzsBLv9/3+Dg4EuO7FpaWtztt9+eXCrNUgUcY6z8yz1yy5a//CO2fPBkIyMjL7nfTY7gNmzYkFwqzQCOMVbyyQMM2Zuo2Qcc8if3weVC2NDQ4LZs2ZJcKs0AjjFW8nV2dsaoyVGZHKXJzU+Z3NdXX18fn5fJfXByWR5NlfMzMzPJR0ozgGOMBdnY2Jjr7e2NT7OT++Hyb9IODQ3FnxfiteYAjjFWsQM4xljFDuAYYxU7gGOMVewALtmpU6dcR0eHa21tdYcPH06uTd8ymUz8sPzevXuTa9I3+cXrAwcOuObm5vjvRP5u0jr53y/fh/y7Gh8fT65ll2oAl0yeUS0PV8vD2fLw9sDAQPKRdO2uu+6Kv49CvxqTls3NzcXPiZKnGsjTB9L6vQjU+d+H/AeIXboBXDT5h5j7S7/y3J1bb701Pp/GyfeRZuDyJ8+jkqcSpH3yffT0yO+Nsks1gIsmTy7Mfaa13MS76aabkkvpWyUBJ9+L/N2k7f04cydHb3IkJ8DJE13ZpRvARZMfotxXNRDg1q5dm1xK3yoFOPk+BAUBIs2TWwQCnPwb4ybqpR3ARZObqLkgyH0mHMGVd1ncBIZKmdw32tXVlVxil2IAl0zug5MHGOQHSx5w2LhxY/KR9C3twMl/cAS33N9ZTOPk+8hO/k7kCE5eIohdugFcsuwrHsg/QgFuOa89b2nygoGrV6921113XXy6f//+5CPpmdxPlf3fn01eWidtk0eD5T+ckvy7qqSj0bQM4BhjFTuAY4xV7ACOMVaxAzjGWMUO4BhjFTuAY4xV7ACOMVaxAzjGWMUO4BhjFTuAY4xV7ACOMVaxAzjGWMUO4BhjFTuAY4xV7ACOMVaxAzjGWIXOuf8DmWM2Y6tYR30AAAAASUVORK5CYII=;" vertex="1" parent="1">
          <mxGeometry x="169.89" y="163.5" width="126.29" height="102" as="geometry" />
        </mxCell>
        <mxCell id="h-QL1N03Gx9EJs0tnDSq-13" value="" style="shape=image;verticalLabelPosition=bottom;labelBackgroundColor=default;verticalAlign=top;aspect=fixed;imageAspect=0;image=data:image/png,iVBORw0KGgoAAAANSUhEUgAAATYAAAD6CAYAAAAr4WvSAAAAAXNSR0IArs4c6QAAAARnQU1BAACxjwv8YQUAAAAJcEhZcwAADsMAAA7DAcdvqGQAABvzSURBVHhe7Z15dFTXfcf7Z9vTnrane0/tGOOoadJmJclxmsVKE4NAtuIsjlncxEmcRUkdN3WxXMeOT4icYydUsWW8yBhkzGIjJAxiEWhBGyAJGYSRBrSPQAiQQGhF0mi5vb/nN2KkXC7zuO9e7gzfzzmfo3lvRkrky/3ovjfL+wMGAABxBsIGAIg7EDYAQNyBsAEA4g6EDQAQdyBsAIC4A2EDAMQdCBsAIO5A2AAAcQfCBgCIOxA2AEDcgbABAOIOhA0AEHcgbACAuANhAwDEHQgbAMA3JiYm2PDwsOOVoMf09/dPOzo66t7jHwgbAMA3lixZwlJSUhyvRH19vXN/enq6Y25urnuPf8RE2EZHh6FFNrZdiHmbT15kjecGYt5TF6+8MoqGsbEJPqbjV9ULnZ2dVw1bWlqau6WHGFmxNUJL7BsMsLlJa2Le2x/cwuasKo1579lcy8fl2nlxTQH7o5sXS/3kncvZ/v0HWGFh4QwDgYD7U2YSTdgSExNZamoqy87Odg5H/QZhg55E2OzSn7Atkfqp+Wls+fJHnRhFSmEScbWw9fb2OlGsqqpyDkV1rN4QNuhJhM0u1cO2h/3xzfdL/fT8/2Xj4xPud1ydq4VtNhTJUCjkbvkDwgY9ibDZpWrYXlpbyP7klm9LvT3pCeWwTU1NOc6GVm5eIhgtCBv0JMJml36E7U/nfEfq7UlPRh22lStXsmXLlrGEhATna/g8XHV1tSORk5PjHMbSISit1m7YZ0VFEwxeHxE2u1QPWxGP1/ekfmbhU1GHbXJy0nmdWtjwKm32iu1qr3VTBWGDnkTY7FI1bC+vLWZ/Nvf7Uv9t0S89HYraAMIGPYmw2aVy2LJL2J/P/aHUzy5agbDpQTzJoHkRNrtUDdsr2fvYX9z2E6mfS34aYdODeJJB8yJsdqkcttdL2V8m/FTq5+96BmHTg3iSQfMibHapGras18vYXyU8LPULdz2LsOlBPMmgeRE2u1QPWzn763/6mdQ77v4NwqYH8SSD5kXY7FI1bK+uK2d/84FHpCamrETY9CCeZNC8CJtdqoetkv3tP6dJ/eJXfoew6UE8yaB5ETa7VA/bfvZ3H3xc6hfveR5h04N4kkHzImx2qRq21W8cYH//oSek/vs9LyBsehBPMmhehM0u1cN2kP3Dh34h9UtffRFh04N4kkHzImx2qRq213jY/vFfn5L65a+9hLDpQTzJoHkRNrtUDtv6KnbTh1dIvfNrryBsehBPMmhehM0uVcO2Zn01e99Hnpa64OurETY9iCcZNC/CZpfKYdtQw2756DNSF3zjNYRtNsFgkNXU1DgXf6ioqHC2vSOeZNC8CJtdqoZt7YZDbM5HfyM16RtrEbZI6FMy6VM06YINdDWazMxM52OAaZ83xJMMmhdhs0v1sNWyOR9bKTXp3tcRtjADAwNXvPoMxW1kZMTdigbxJIPmRdjsUjlsG99ht348Q+rCb76BsIUZHx8XXp6LriFIKzaELTZF2OxSNWzZGw+z2z7xvNTk+zYgbJFQ2Eg6BCXpkJRWa96vIyieZNC8CJtdqoftCHv/vBek3rV4E8I2G7oUV11dnXOFGvra09Pj3uMF8SSD5kXY7FI5bJt42D61SupdSxA2TYgnGTQvwmaXymF7k4ft0zxgEu9a+ibCpgfxJIPmRdjsUj1sdez9t78o9a77ETZNiCcZNC/CZpfKYXurjt322ZelJn/rLYRND+JJBs2LsNmlctg287B9jgdMYvK3NyNsehBPMmhehM0u1cN2lN32hVekJj+AsGlCPMmgeRE2u1QOWw4P2x1ZUpO/k4Ow6UE8yaB5ETa79CVsiTxgEpO/i7BpQjzJoHkRNrtUDlvuu+y2L62WmvxgLsKmB/Ekg+ZF2OzSl7B9mQdMYvL3ETZNiCcZNC/CZpfKYcvjYZv/mtTkH+YhbHoQTzJoXoTNLn0J2wIeMInJP4o+bI2NjayoqMjxStDbLPPy8lhGRgYrKChw9/oLwgY9ibDZpXLYth5jcxfy/yYSF6VujTpsWVlZ05+7eCVqa2tZVVWVEzj6YAzvH4pxdRA26EmEzS6Vw/Y2D1vyWqmLfvK2p0NRCpYsbJHQYxMTE90t/0DYoCcRNrtUDtu2ejb37telLnpoG1uzZo2zsoqUPhVbhJew0c+gVZvfIGzQkwibXfoStq/wgElc9NNtLCcnZ/pzFcPm5ua6P2Um0YaNvp8+dJY+fNZvEDboSYTNLpXDtp2H7Z51Uhc9vM33Q1G6uBNFjR6rA4QNehJhs0v1sDWwuV99Q+qih7dHHTa61kn4vFnkSoxuh7dbW1ud8AUCgRn7/QRhg55E2OxSOWz5PGzfWC910X/nRx02OmSlc2Zhw5fbpK/h2w0NDTMeQ05NTTn3+QXCBj2JsNmlcth28LDdywMmcdEj0YfNFhA26EmEzS5Vw7aWh+3W+zZIXbh8B8KmB/Ekg+ZF2OxSOWw7A+zWxRulLly+E2HTg3iSQfMibHbpS9iW8oBJXPgowqaFUKgdWmL/YCu7d1V5zHvf88VswfK1MW/qc/nuLLk21u7iYbt/k9SFj+1C2PQgXj1A8/aNnmAfWF0W835m1V72hzfdF/N+/u6f83G5dtbuPs5u/dabUhc+vhth04N4kkHzImx2qRy2Ah62BzZLXfhEAcKmB/Ekg+ZF2OzSj7DN+e5mqQufRNg0IZ5k0LwIm10qh23PCTbnezlSk36xB2HTg3iSQfMibHapHLa9PGzf3yI16am9CJsexJMMmhdhs0vlsBXysP0oV2rSCoRNE+JJBs2LsNmlctiKGtmcH+dJTUovRNj0IJ5k0LwIm10qh62Yh+0/t0pNeroIYdODeJJB8yJsdqkatjXFTeyWh96WmvTrYoRND+JJBs2LsNmlcthKeNj+iwdMYtIzCJsmxJMMmhdhs0vlsO1rZrc8sl1q0m/3IWx6EE8yaF6EzS6Vw1bKw/Y/+VKTViJsmhBPMmhehM0ufQnbozxgEhf8XynCpgfxJIPmRdjsUjlsZS3sfY/tlLrgd2UImx7EkwyaF2GzS+WwlfOwPb5L6oLnEDZNiCcZNC/CZpfKYavgYXtit9QFmeUImx7EkwyaF2GzS+WwVbay9z1VIHXBqgqETQ/iSQbNi7DZpXLY9vOw/XKP1AUvVSJsehBPMmhehM0u1cPWxm5esVfq/Jf3I2x6EE8yaF6EzS6Vw3aAhy2dB0zi/CyETRPiSQbNi7DZpXLYDvKw/bpQ6vxXDyBs0dDb2+vxkvbiSQbNi7DZpXLYqtrZzc8WS52/5iDCFg2pqalsZGTE3YoG8SSD5kXY7FI5bNU8bL/lAZM4f20VwhYmFAo5AROZmJiIsMWoCJtdqobtNR62m1aWSL0zG2GbZmJigi1btoxVVVX9nikpKQhbjIqw2aVy2GqC7KaMfVLvXFeNsEVCKzMRaWlpCFuMirDZpfKh6KEgu/n5Uqnz19cgbHoQTzJoXoTNLpXDVhtkt7xQKnXBBj1hm5ycdG/5D8IGPYmw2aVq2NbysM1ZVSo1aWP0YcvNzXWO1Og0FB2ZiRgaGmLp6enOYxISEpzTU36DsEFPImx2qRy2d4Ls1hfLpC7cFF3Y6AlDOn/e2dnpbNMThWVlZc7tSAoKCpywEf39/WzevHnObT9B2KAnETa7VA1bNg/b3JfKpC5681BUYevu7nZWYWEKCwtZVlaWu3WZ9evXOyu7MBS2gYEBd8sfEDboSYTNLv0I220vl0lNfusQW7p0qXPYGGlkxIhgMDjj8JPClpGR4W5dhlZxtJoj6DH0syiKfoKwQU8ibHapGrbXjwRZwqtlUu/OOcQuXOh1DjFnG0lXV9d0sAhalYlWbER2drZz2EpxpK8IG7yuImx2qRq2dTxsov8+kaZsie5QlM6xRZ4vy8zMZHl5ee6WmPA5tvHxcXePPyBs0JMIm136EbZ/fq1M6ldyowsbQSs2ChodYtKzoz09Pc7+hoYGR4IOWWnFRis6Wq3Rbb9B2KAnETa7VA3bG3Ud7INryqTekxd92IhAIMDq6upmPCFAL8gPvyifVnZ0PxkOn98gbNCTCJtdKoftaAf7l+xyqV9921vYbABhg55E2OxSNWzr3+1gH36jXOrXtiFsmhBPMmhehM0u/QjbR9aXS/36doRNE+JJBs2LsNmlatg28LB9bEO51HvzETZNiCcZNC/CZpfKYTvWwT6+sVzqN3cgbJoQTzJoXoTNLlXDtpGH7RObyqXetxNh04R4kkHzImx2qRq2TfUd7JObK6Qu3l2LsOlBPMmgeRE2u1QOW0MH+1ROhdQlBQibJsSTDJoXYbNL1bC9ycP26S0VUpfuQdg0IZ5k0LwIm10qhy3QwW7PrZB6/16ETRPiSQbNi7DZpWrY3uJh+8zWCqn/UYiwaUI8yaB5ETa7VA7b8Q722W0VUr9V/A7CpgfxJIPmRdjsUjVsm0+cZJ/Pr5T67RKETRPiSQbNi7DZpR9h+8KOSqkP7EPYtBAKtUNL7B9uY7uaT8S8OwPH2Jb8XTHvzsJSd5ZcGzmNJ9kdOyulfqcUYdOEePUAzTs11STcH2tOTrYI98ea4+Pt/Ou1s4WH7Yu7KqV+rwxh04R4UKF5ETa7VA1bblMHu7OgQuoPyvGsqCbEgwrNi7DZpWrY8njYFuypkPqjCoRNE+JBheZF2OxSNWxbedgW8njJTEXYdCEeVGhehM0uVcP2dnMHS95bLvUnlfh0D02IBxWaF2GzS9WwbeNhSyksl/rQfoRNE+JBheZF2OxSNWzbedjuKSqX+jDCpgvxoELzImx2qRq2/JYg+3pxmdSfHUTYNCEeVGhehM0uVcO2g4ft3pIyqY8gbLoQDyo0L8Jml36E7b59pVKXV9UgbHoQDyo0L8Jml6ph29kaZEtKS6U+Wo2waUI8qNC8CJtdqoZtFw/b/TxeMh9D2HQhHlRoXoTNLlXDVtAWZA+U75P685pqhE0P4kGF5kXY7FI1bHt42L5bsU/qk4cQNk2IBxWaF2GzSz/C9iCPl8ynEDZdiAcVmhdhs0vVsO1tb2c/qCyR+svaKoRND+JBheZF2OxSNWyFPGyp+0uk/uodb2E7c+YMa25uZmNjY+4eMfS4hoYG56vfIGzQkwibXaqGrZiH7aEDJVJ/fTj6sKWnp7O0tDSWnZ3N5s2bx3p6etx7ZpKamsqWLVvGMjMzHf0GYYOeRNjsUjVsJcF29vDBYqnPHDkYVdiGh4dZSkqKu/Ve5AoKCtyty9TV1c14nA4QNuhJhM0uVcO2j4ftZ1XFUp/lYSso2MNyc3NnWFVV5f6U9+ju7nZWYWEKCwtZRkaGu3WZdevWTa/YKH6BQMC9xz8QNuhJhM0u/QjbI9XFUn9bd5CtWPErJ0SRUpQi6erqcoIVhsI3+zEEhS0xMdEJGkm3/UZ72EZGRvh//HF36z16e3v5BJlyt6JBPKjQvAibXaqGrbSjnS2vKZK6koctmkNRWrFFho1WdVlZWe7WZXJycmYEj76no6PD3fIHrWGjk4J0LE0nESNPENIvQsGLHvGgQvMibHapGrayjjb22KEiqb87Gl3YQqGQM9fD0JMIZWVlzu2JiYnpxUxjY6Oz4gtDK7bBwUF3yx+0hY1WaRS1/v5+Z5tiFq40wha7Imx2qRq28pNt7Oe1hVKff/dAVGEjaJVG8z58uDo0NOTsr66udgxDLQg/hp5B9RttYaNl6ezjayo4/SIIW+yKsNmlatgqeNiefKdQ6gvHog9bGFq9zUZ0+olWcjrQumITnRSk2CUkJCBsMSrCZpeqYavkYXvqcKHUF+u9h+16o/UcGz1LIiIYDArrfWXEgwrNi7DZpWrY9vOwreDxkvkywqYL8aBC8yJsdqkatgOn2tjTR/ZKzWrYj7DpQTyo0LwIm12qhq2qs409e3Sv1NeOI2yaEA8qNC/CZpeqYavmYVv57l6p2QibLsSDCs2LsNmlathqTreyjGN7pb5+AmHThHhQoXkRNrtUDdshHrbnGvZIfaOxEmHTg3hQoXkRNrtUDVstD9uqwB6pG5sQNk2IBxWaF2GzS9WwHe5qZS8fL5D6VjPCpgnxoELzImx2qRq2Izxsr54okJrTUoGw6UE8qNC8CJtdqoat7kwrW9NYIDW3FWHThHhQoXkRNrv0I2zZTQVSt7YhbJoQDyo0L8Jml6phO3q2la1rLpC6DWHThXhQoXkRNrtUDduxsy1sU8tuqTvbyxE2PYgHFZoXYbNL1bDV87Btbt0tdXcQYdOEeFCheRE2u1QNW8O5FralbbfUPR0ImybEgwrNi7DZpWrYAjxsW9t3SS08ibBpQjyo0LwIm12qhu1Edwvb3rFLaskphE0T4kGF5kXY7FI1bI08bLtO7ZJa1omwaUI8qNC8CJtdqoatqaeFFXTulFpxugxh04N4UKF5ETa7VA1bMw9bIY+XzMouhE0T4kGF5kXY7FI1bC08bMWnd0o9gLDpQjyo0LwIm12qhq31fAsr7doptfoMwqYJ8aBC8yJsdqkatvYLzazy7A6ptedKETYdhELt0BLHxoLs1YaGmHdz03Hh7xdrjo6ecmfJtUFhO3Buh9TD3QibJsR/raB5B8ZOsDt2Vsa8P66sFf5+sabqii3Iw1bF4yXzCMKmC/GgQvMibHapGrYOHrbq7h1S6xA2XYgHFZoXYbNL5bD1NrMaHi+ZR3sQNk2IBxWaF2GzS9WwneRhq+3Jl3rsPMKmCfGgQvMibHapGrZTPGxHzudLrT+/D2HTg3hQoXkRNrv0I2x1F/KlNlxA2DQhHlRoXoTNLpXDdrGZHeXxkhnwELa2tjb23HPPsaeffppVVVW5e2cSDAbZ448/7jxm9erV7Ny5c+49/oGwQU8ibHapGrZOHrZjvflST3gIW0pKCissLJy+3dPT49yOpLe3lwUCAdbf389yc3Odx/kNwgY9ibDZpWrYTvOwNVzkh5sSG3ujC1tfX9+MSGVnZ7P169e7W2I6OzvZvHnz3C3/QNigJxE2u1QNWxcPW4DHS2YTD9uKFb9iy5Ytm2FmZqb7U96ju7ubpaWluVvMWbllZGS4WzOhFRv9jMTExOkVnp8gbNCTCJtd+hG24zxeMpt52AoK9jgrsEjpMDKSrq4ulpqa6m4x5xxbVlaWu/X7UNzo5+BQFF53ETa7VA3bmb5m1tjHDzcltl6M7lB0eHjYWYGFoWhd7VCUoEPRiQl/n3VF2KAnETa79CNsTTxeMtuiDBsRPrSkJwboUJNWZQQdptI+or6+3jm3hicPBAMKr48Im12qhu1sXxNr6d8utb0v+rDRSzfo5R70co6ioiJ373tho5d5EB0dHc795KZNm5yXiPgNwgY9ibDZpWrYzvU3sbaB7VI7+qMPmy0gbNCTCJtd+hG29kG+KpN4EmHThXhQoXkRNrtUDVs3D1sHj5fMUwMImybEgwrNi7DZpR9hOznEV2USOxE2XYgHFZoXYbNL1bD18LCd4vGSeRph04V4UKF5ETa7VA3b+YEm1jW8XeqZQYRNE+JBheZF2OzSj7CdubRN6tmhEoRtNmfPnnW+joyMsMbGRlZRUeHc9oZ4UKF5ETa7VA3bBR62sxQviecQtpmE3yxLb5mgN8zSbXqTrPd384sHFZoXYbNLP8J2boTHS2L3MMI2zcDAwPQbYuktFpFvm6DAeVu1iQcVmhdhs0vVsPUONrEeHi+pCNtl6C0U6enpzm16v1jkx5nQ6o0+bC56xIMKzYuw2aVq2C7ysF0Y3Sb3EsI2zfj4+IyPMAm/AZag/VixxaYIm12qh62Zx2u73Et4VnQGV4qXt9UaIR5UaF6EzS79CNvF0R1Sey/h8nuaEA8qNC/CZpfqYWthF8d2Se29VIaw6UE8qNC8CJtdqoatj4etb2y31IuXyhE2PYgHFZoXYbNL5bANtbL+0B6pfSOVCJsexIMKzYuw2aV62Np4vAql9o0cQNj0IB5UaF6EzS5Vw9bPwzYQKpLaj7DpQjyo0LwIm12qh62dDYaKpQ6MHETY9CAeVGhehM0u1cMW5PHaJ3VgpBph04N4UKF5ETa79CNsQ+OlUgdHaxA2PYgHFZoXYbNL1bANDHWw4fEKqYOjtQibHsSDCs2LsNmlethO8nhVSh0cfQdh04N4UKF5ETa79CNsl8b3Sx0aPYyw6UE8qNC8CJtdqoftFBuZOCh1eOwIwqYH8aBC8yJsdqkatsGhTjY6US11eOwowqYH8aBC8yJsdqkctuFONjZ5SOqlsXcRNj2IBxWaF2GzS/WwnebxqpV6KXQMYdODeFCheRE2u1QN2xAPW2jysNSRUAPCpgfxoELzImx2qR62Lh6vI1JHQgGETQ/iQYXmRdjs0o+wjU/WSR0NHUfY9CAeVGhehM0u1cN2hk1MHZM6FqL/nejDNjEx4Xg1onnMtYKwQU8ibHapGrbh4bNscqpeaijUFHXYsrOznctr0gWbIi/mFMnw8LBzHz0uMTGR5ebmuvf4B8IGPYmw2aU/YWuQGhpvjipsoVDICVX4inQUr7KyMud2JHV1ddPRo8fS99D3+gnCBj2JsNmlctgunWNT7LjU0HgLu3Ch14lQpLOhawnTKiwMXSg9IyPD3brMunXrZqzS6Hvoe/0kJsI2OtoPLbF/qI9VnT4f8x45c0H4+8WaIyOD7iy5NsbGBtno2Dm5o+fZ0qXLWEJCwgwjI0Z0dXXNuDD6lcL2yiuvOPeFoe8JBoPulj/EyIoNAHC9mb1im71qo7BFnlejVVlWVpa7dZmcnJwZKzb6HvpeP0HYAAC+QOfJ5s2b524xlpmZyfLy8tyty5SUlDj3haFzbPSEgp8gbAAA30hPT3cOLenZ0ZSUFDY0NOTsr66uZg0NDc5tihgFkB4TfrzfIGwAAF/p6OhwIjY4ePn838jIyO+9bq25uZmdOXOGjY2NuXv8A2EDAMQdCBsAIO5A2AAAcQfCBgCIO274sPX29rKioiLHS5cuuXtji6mpKdbZ2em8VaW1tdXdG3vQCebKykpnLOrr6929scfAwIDze+Tn57PaWnqHAzDNDR02mkj0lDS9WJCk19PEIpOTk9NvKtbx1Lkpjh496ry+iV6VTr9HrP4uZ8+edV7KQL8HvZxh9iv0gX5u6LA1NjbOeKU0TSSaXLEKxTmWwxYJvaqdXutE0Y5l6PegP5jj4+PuHmCCGzpsNTU1zl/UMLRaoH2xSjyFjVY7sbzSoVMDtGqjP5z0FZjlhg4bTZ7If3Thw4dYJV7CFggEnFVOVVWVuyf2oLCFxyNe/tjEEjd02CoqKma8Z43+AeJQ9PpCUaPznrH8B2Y2FGk6nwvMccM/eUDnceiva3iV0NfX594be8R62OikezxELfLfUPhcIcJmlhs6bASt2OgfHkWNwhCrPPjgg46LFy92vvr9aQkmoDdKh///h43FJw/oPC39m6JzhCTOsZnnhg8bACD+QNgAAHEHwgYAiDsQNgBA3IGwAQDiDoQNABB3IGwAgLgDYQMAxB0IGwAg7kDYAABxB8IGAIg7EDYAQNyBsAEA4g6EDQAQdyBsAIC4A2EDAMQZjP0/UZgVcnUW4hUAAAAASUVORK5CYII=;" vertex="1" parent="1">
          <mxGeometry x="300" y="166" width="124" height="100" as="geometry" />
        </mxCell>
        <mxCell id="h-QL1N03Gx9EJs0tnDSq-14" value="" style="shape=image;verticalLabelPosition=bottom;labelBackgroundColor=default;verticalAlign=top;aspect=fixed;imageAspect=0;image=data:image/png,iVBORw0KGgoAAAANSUhEUgAAATUAAAD9CAYAAADd0+BpAAAAAXNSR0IArs4c6QAAAARnQU1BAACxjwv8YQUAAAAJcEhZcwAADsMAAA7DAcdvqGQAABwbSURBVHhe7Z17VFXXncfnz86smTUza96zJg+jZfqY6dNpV2d1pnXWPLo6WaHttJ2ISJMmmpa+bNIHmdTExqJc8BUxKkYTkhg1IlFBFAURAeWCKBcVfCAKEUTxxesCF4E9Z5+zrwJeN1f33slvX7+ftT71nHO3mlvg4z73vH6PAQBADIGoAQBiCkQNABBTIGoAgJgCUQMAxBSIGgAgpkDUAAAxBaIGAIgpEDUAQEyBqAEAYgpEDQAQUyBqAICYAlEDAMQUiBoAIKZA1AAAMQWiBgCIKRA1AEBMgagBAGIKRA0AEFMgagCAmAJRAwAok5mZyaZNm8amTp3KioqKxNaxrF27ls2aNeumDQ0N4hW9IGoAACUCgQCLj49nXV1dbqh43CIxb968OwZPJ4gaAECJgoIClpqaKtYYS05OZu3t7WLtFjxqfJzpsJGN2tDQEBsYCMaAfRG22eeFi1dY/cnz1nvydFvE7bbZ3dMnflLujYGBGxPa0XHV3Z0cb25urvhTPLKyssZs4+Gqr68Xa7fIy8tzd1P563FxcRHDpwOyUQuF+p3/PWW9g4NnI263zXXvbGUfeeBx6/3KN+ZG3G6b72474Hxd7p1HExaw339wutS5Cze5u5PjbW1tFX+KR05ODsvOzhZrjKWkpLDGxkaxFhkeQZ/PJ9b0gqgZFlGjJaLm8d8JC51wJUidm7ZJjJZTUlLizsDCJCYmTjgL47ugc+fOFWt6QdQMi6jRElHzeDTBx/7gwZlSX0x7V4yWEwwG3d1SHio+Y+NRC8N3TQcHB93lNWvWML/f787S+MGE8vJyd7tuEDXDImq0RNQ8HktcxP7w4SekvuTLEaMnpq2tjRUXF7v29d36vI/vhg4PD7vLdXV1N8fw8aZA1AyLqNESUfN4LHEx+6NJ35f6km+LGG0XiJphETVaImoej81c4oTraanzfGOPctoComZYRI2WiJpH/Mxl7I8nz5Y6L/09MdouEDXDImq0RNQ8vpH0CvuTyT+Q+tv0rWK0XSBqhkXUaImoeXzzeyvYn075sdSXM7aL0XaBqBkWUaMloubxrSdWsj+L+5nUlzPyxGi7QNQMi6jRElHz+J8nVrE/j5sjdf6ifDHaLhA1wyJqtETUPL79xGr2F3//rNT5i3aI0XaBqBkWUaMloubxnSfXsL/82C+k/m5xgRhtF4iaYRE1WiJqHt/5/jr2Vx9Pkfq7xbvEaLtA1AyLqNESUfP47lOvs7/+xAtSU5cUitF2gagZFlGjJaLm8b9PZbO/+eRcqalLdovRdoGoGRZRoyWi5vH402+yv/3kS1IXLNkjRtsFomZYRI2WiJrH40+/xf7uH+dJXbDU/PMETICoGRZRoyWi5pEwaz174FPzpS5cWixG2wWiZlhEjZaImseM2RvZQ59eIDVtWYkYbReImmERNVoiah4zntnEHv6MT6pv2T4x2i6MRK2/v5+dOnWKVVdXu7fs5XZ2dopXowNRoyWiRkvVqCU+s5lN+kyGVN+yUjHaLrRH7dq1a+6DTfmz//ijsPgDGcJPbx7/aC0ZiBotETVaqkcth0367GKpvlf2i9F2oT1q/P7jkeLFn97MH84QLYgaLRE1WqpGbeYPctkjn1sqNf2VMjHaLrRHLT8/P+ITmPmzAkc/ZWYiEDVaImq0VI1a0g+3simfXy41Y7mZpz2ZRnvU+JNk+K4m3/0M73ry3VC+S4rdT3tF1GipGrXvJW9jH526QmrG8gox2i6MHCjgNDU1saqqKtdAIMAuX74sXokORI2WiBotlaP2o+3so194VWpGptrf8WFhLGqqIGq0RNRoqRy1HztR+6ITL4kZKxA1rSBqtETUaKkctZ/ksY9+aaXUjFcRNa0garRE1GipHLWf5bMpX14tNWPlQTHaLhA1wyJqtETUPJLmOFH7FydeEjNWIWpaQdRoiajRUjlqP3ei9pUsqRmrK8Vou0DUDIuo0RJR80h6dgeb8tU1UhE1zSBqtETUaKkcteecqE1z4iUxIwtR0wqiRktEjZbKUfvlTjbl39dKzVjjF6PtAlEzLKJGS0TNI+lXTtT+w4mXxIzX7i5qIyMjYunDBVEzLKJGS0TNI+nXTtT+a53UjLVVYvTE8Esh+eWRcXFxEa/9Hs2GDRvcsd3d3WKLXhA1wyJqtETUPJJSdrEpX3PiJTE9yqjxyyD5zSr4nXgaGhrcYN0JfmMLfl04H8OXTYCoGRZRoyWi5pH0/C42+euvS01fF13UCgoKWHZ2tlhjbrTa29vF2lhSUlJuhg9Rs1REjZaImkfS/xWyyY++IXX+qgp3d3K8owPGycrKGnMHHr4rWl9fL9ZuwX8fv2sPB1GzWESNloiaR9JvdrPJj70pNf2NandWNd7xMcrJyRkTOj4ba2xsFGseg4OD7u3Hwr+fR83vN3N0FVEzLKJGS0TNI2muE7VvOPGSmJ59SIyWU1JS4s7OwvDP18bvfg4NDbm7pWH5jI//ymOnG0TNsIgaLRE1j6QX97DJ33xLarRRCwaD7q36+WyNx230Ha75rmmkcGH302IRNVoiah5JLzlR+9bbUtPfrBGjJ+bixYs3nxzHnyYXprm5mQ0PD4u1W/Dd01AoJNb0gqgZFlGjJaLmkfTbIjb5O+ulpr8VfdQogagZFlGjJaLm4Ubtu068JKa/jahpBVGjJaJGS9WozZxfzB55/B2p6esPi9F2gagZFlGjJaLmMfN3e9kj0zdITX8HUdMKokZLRI2WylFLdaI2w4mXRERNM6HQgBOEc9YbCjVH3G6bufmFbhBs99EZCyNut828wuhOt7gTMxeUsEdmbpSavuGIGG0XmKkZFjM1WvIgRNpum8oztTQnat/bJDV9I6KmFUSNlogaLZWj5tvHHnlys9T0TbVitF0gaoZF1GiJqHkkppeySU9tlup7F1HTCqJGS0SNlspRW+RE7ekcqb7NiJpWEDVaImq0VI7a4v1s0uwtUn05ATHaLhA1wyJqtETUPBKXlrFJP8yV6tuCqGkFUaMlokZL5agtc6L2o/ek+nLrxGi7QNQMi6jRElHzSFxezib9ZKtU33uImlYQNVoiarRUjdqMzAr28E+3SfVtPSpG2wWiZlhEjZaImseMFU7Ufu7ES6JvG6KmFUSNlogaLZWjtvIAe/gXeVJ924+J0XaBqBkWUaMlouYxY9VB9vAv86X68hA1rSBqtETUaKkctSwnar924iUxLf+4GG0XiJphETVaImoeM9ZUsoeeL5CatgNR0wqiRktEjZbKUXvNzx56YafUtILbH0hsA4iaYRE1WiJqHjPWOVGbu0tq2k5ETSuIGi0RNVoqR+2NKvbQvEKpabsaxGi7QNQMi6jRElHzmJFdzR56ebfUtEJETSuIGi0RNVqqRi3hzUPswfl7pKbtPiFG2wWiZlhEjZaImkfC207UUp14SUzbg6hpBVGjJaJGS+Wora9hDy4skppWhKhNSFdXl1iaGESNlogaLZWjtuEwezB9r9S04pNitF18oFGbPn26WJoYRI2WiBotlaO20YnaIideEhfuRdRcmpqaWHJyckQRNXtF1GipGrXpm46wBxaXSF1Ywr/29qE9alVVVSw1NZX5/f7bRNTsFVGjpXLUNteyB5buk7pw32kx2i6MzdQigajZK6JGS+Xdzy217MHlpVLTSu8uasPDw2LpzkQzRhUjn6mNjIyIpXsHUaMlokZL1ajNyK1lD68olZq2P/qopaSksGnTprG4uDiWm5srto5l8eLFLDExkcXHx7sTnwsXLohX9PKBHii4GxA1WiJqtFSNWuJ7tWzSq6VSfWXRRS0QCLix4mc3NDQ0uHELhULi1cjw8M2bN0+s6QVRMyyiRktEzWPmewH2yMr9UqONWkFBwZjZGZ+Ftbe3i7Xb4fHLzMxka9asEVv0gqgZFlGjJaLmkbQ1wCav2i91fvFxd3dyvNnZ2eJP8cjKyhoTNX6gsL4+8h0+eMymTp3qzua6u7vFVr0gaoZF1GiJqHkkbQuwKav3S80oP81aW1tvc/xJ9Dk5OWNCxz9fa2lpEWuR4XF77rnnxJpeEDXDImq0RNQ8nsgLsLjX9ktddCC63c+SkhI3ZGH452uy3U8O/+wtISFBrOkFUTMsokZLRM3jyfwA+9ja/VIXRxm1YDDo7lLy2Rff9eRRC7N06VLnZ2DQXeafofHdVD6r42Py8vLc7bpB1AyLqNESUfP4/o4A+/i6/VIXH4z+lI7Ozk5WXV3t2t/Pf3Y9mpubb56bxs9hLS8vd7148aK7zQSImmERNVoiah5POVH7xOv7pS65i6hRAlEzLKJGS0TN4+mdAfYP2WVSl1Q2itF2gagZFlGjJaLmMWtXgH3q7TKpS/2ImlYQNVoiarRUjdrswgD79PoyqcuqEDWtIGq0RNRoqRq1Z3YH2GffKZP6CqKmF0SNlogaLVWj9oM9Afa5DWVSX6lG1LSCqNESUaOlatR+6ETt8xvLpC5H1PSCqNESUaOlatSS99axf9pcLjWzBlHTCqJGS0SNlqpR+5ETtS/klEvNPIyoaQVRoyWiRkvVqP24pI59cUu51BWIml4QNVoiarRUjdpP9tWxL+WWS331CKKmFUSNlogaLVWj9tPSOvbPW8ulrkTU9IKo0RJRo6Vq1H62v459eXu51JW1iJpWEDVaImq0VI3anPKj7F/zK6SuCpwRo+0CUTMsokZLRM3j507UvrKjQurqOkRNK6HQgBOEc9YbCjVH3G6bZ87WsS35O603d8eeiNttsybA/7G5d56tOMq+WlAhFVHTDGZqtORhi7TdNmPlffT3X3N+vXeeO3CU/dvOCqlZRxE1rSBqtETUaKkatV8drGP/WVgu9bVjOFCgFUSNlogaLVWjllJZx762u1zqWkRNL4gaLRE1WqpG7Xknal93wiVzHaKmF0SNlogaLVWj9oI/wB7dUyb19eOImlYQNVoiarRUjdpvnKjFF5VJfQNR0wuiRktEjZaqUXuxKsC+WVwm9c16RE0riBotETVaqkZtXnWAfXvvfqlv1eMReVpB1GiJqNFSNWovHwqw75bsl/p2A6KmFUSNlogaLVWjNv9QLXt8X6nU9YiaXhA1WiJqtFSNWmpNLUsoLZX6zglETSuIGi0RNVqqRm2BE7WZTrhkbkDU9IKo0RJRo6Vq1HyHj7Any/ZJ3XSS/132gagZFlGjJaLmkXHkCHuqfJ/UdxE1vSBqtETUaKkatUVO1GY54ZK5GVHTC6JGS0SNlqpRW1J7hD1TUSI15xT/u6JneHhYLN2ZaMaogqgZFlGjJaLmsSxwhCUfKJGaexdRS0lJYcnJyWzatGksNzdXbB3L7NmzWWJiIouPj3fHmgJRMyyiRktEzWN54DD76cESqVtP879rYgKBwM1IdXV1uWELhULu+mguXLgglhhLTU1lhYWFYk0viJphETVaImoeK+oOszmVe6VuO31SjJZTUFAwZnbGA9fe3i7WIpOdnc3Wr18v1vSCqBkWUaMloubx6tHD7Fn/Xqmbjx9lcXFxt8mDNJqsrKwxUeOzsPr6erF2O62tre5srrm5WWzRC6JmWESNloiaxyonar+o2is1r/GkG6Dx8l3M0eTk5IwJHf98raWlRayNhf9+/plaUVGR2KIfY1Hr7u4WS7cY/3+GDESNlogaLVWjtvpYDftVdbFUHrVoqKysdEMWhh8MiLT7yZvAXzMZNI72qPX19bkl5k6dOpX5/X7xCmPTp08XSxODqNESUaOlatTWHK9hzx8qlrrjTHRRCwaD7s863+0MHwUNw7cNDg66ywkJCW7U+KyOW1NT427XjfaoVVRUsMzMTHe5oaHBjVs4bIiavSJqtFSN2lonar+pKZJacOaEGD0xAwMD7lFQ/jPPl8N0dHSwkZERd5l/hjZa/poJtEctPz9/zOyM73LysPEPEhE1e0XUaKkatXX1h9iLh4uk7myKPmqU0B41PqUcf3QkHDZEzV4RNVqqRu2NhkNs3pEiqYVnETWXoaGhiNNKvl99N9NNRI2WiBotVaP2phO1+U64ZO5G1PSCqNESUaOlatTePnGILajdI3UPoqYXRI2WiBotVaO24eQhll63R2rxOURNK4gaLRE1WqpGbdOpQ2zx0T1SS5oRNa0garRE1GipGrV3T1ezpcf2SN2HqOkFUaMlokZL1ajlOFF7pX631NKWBjHaLhA1wyJqtETUPN5rrGavNuyWWoao6QVRoyWiRkvVqG07U81WnyiUWv4+oqYVRI2WiBotVaOW11TFXjtZKPUAoqYXRI2WiBotVaO2w4na66cKpR48j6hpBVGjJaJGS9WoFZytYtmnC6VWImp6QdRoiajRUjVqu85VsbcaC6X6WxE1rSBqtETUaKkataLmKrbxzC6ph1rvfEtuyiBqhkXUaImoeRS3VLHNTbuk1rQhalpB1GiJqNFSNWolLX625ewuqYcvIGpaQdRoiajRUjVqpe/72dZzO6UeQdT0gqjRElGjpWrUys77WV7LTqmBdkRNK4gaLRE1WqpG7UCrn+08v1Pq0YuImlYQNVoiarRUjVplWyUrbC2QeuzicTHaLhA1wyJqtETUPPxO1IqccMk8jqjpBVGjJaJGS9WoVV+oZHvbCqTWX0LUtIKo0RJRo6Vq1GraK1nphQKpJxA1vSBqtETUaKkatdqLlazi4g6ppzoQNa2EQgPuN6DthkLNEbfbZtVhP3vJ94b1Vh2ujPj+bLO//7r4Sbk3Apcq2cFLO6SevoyoaQUzNVque2cr+8gDj1vvlvydEd+fbarO1I46UfM74ZLZiKjpBVGjJaJGS9WoHXOiVtWxQyqiphlEjZaIGi2Vo9ZRyaqdcMk8g6jpBVGjJaJGS9Wo1V8+yGou50ttuoKoaQVRoyWiRkvVqDU4Uau9ki/17JVjYrRdIGqGRdRoiah5nHCiFriaL/Xs1buL2vDwsFj6cEHUDIuo0RJR8zh55SCrc8Il89xdRC0lJYUlJyezadOmsdzcXLF1LNXV1SwxMZHFxcWxhgZztwpH1AyLqNESUfM45UTt2LV8qc1RRi0QCLhB43R1dbH4+HjW09Pjro+mv7//5uuImsUiarRE1Dwarx5k9dfzpbZcO+ZGaLzjycnJGTM744Frb28Xa7eDqFkuokZLRM2DR63BCZfM0+2H3V3F8WZnZ4s/xSMrK2tM1FJTU1l9/Z3vxYaoWS6iRktEzeOME7UTTrhkvn+HmRp3NHymNjp0/PO1lpYWsXY7iJrlImq0RNQ8zl47yE515ks970QtGiorK92QheHRwu5nBBA1WiJqtNQRtdNOuGS2Rhm1YDDoHvXku53887TwQQMO3zY4OOguNzc3s8zMTDZ16lR3e3FxsbtdN4iaYRE1WiJqHueuH2BnuvKktl6P/pSOgYEBd/bF5cthOjo62MjIiLvMt/OwheWvmQBRMyyiRktEzaPFidrZ7jypbXcRNUogaoZF1GiJqHm833mAnevJk3oBUdMLokZLRI2WqlE770StxQmXzPZORE0riBotETVaqkat1Yna+715UhE1zSBqtETUaKkcta4D7LwTLpkXETW9IGq0RNRoqRq1C07ULgTzpF7qQtS0gqjRElGjpWrU2rsrWHvfdqkdXUfFaLswEjV+NT4/D4XT2dnp3nKkrq7OXY8WRI2WiBotVaN20YnaRSdcMhE1QVtbm3t2Mb9vUvgeS/zsYb5t/IWwMhA1WiJqtFSN2qWeCnapf7vUy92ImktFRcXNK/Z51HjQOPwi2NGXT0wEokZLRI2WqlHrcKJ2mYdL4hVEzSM/P5/5/X53mV/nVVRU5C5z+DVf0YKo0RJRo6Vq1K70HGBXB7bL7caBAhd+kero3czwbUr4r3yXNFoQNVoiarTUE7U8uYjaLfiBgvHcuHGDdXd3i7WJQdRoiajRUjVqV3sr2fWBHVKvduMReVpB1GiJqNFSPWp+dj20U+q1njvfvZYyiJphETVaImoe15yodYZ2SUXUNIOo0RJRo6Vy1ILVrGtwt9TrPebuTmsSRM2wiBotETWPa8FDTriKpF7vOSFG2wWiZlhEjZaImsf1YA3rHiyWer3npBhtF4iaYRE1WiJqHp3Bw6xncK/UTkRNL4gaLRE1WqpH7YgTrn1SO3v432UfiJphETVaImoeXcFa1nujVGpn72kx2i4QNcMiarRE1Dy6gnUseKNcaldvoxhtF4iaYRE1WiJqHt3Bo064KqR29Z4Ro+0CUTMsokZLRM2ju+8Y67txQCqiphlEjZaIGi1Vo9bTd5z1D1VK7e5tEqPtAlEzLKJGS0TNo6evng0MVUnt7uXfu/aBqBkWUaMloubR23+ChYYPSe3uPSdG2wWiZlhEjZaImocXtRqpPUFETSuIGi0RNVqqRi3Y73xvDh+R2hP0Hp5kG4iaYRE1WiJqHsH+0064aqX2BFvEaLtA1AyLqNESUfPoc6J2YzggtTf4vhhtF4iaYRE1WiJqHn0DZ9jQyDGpvcHzYnR0DA0NiSU5g4ODYskMiJphETVaImoe/QNNbHjkuNRgsFWMnhj+OEz+YCX+fN/wIzLH09DQwOLj491HZfIny/F1EyBqhkXUaImoefQPnHXCVS812qgFAoGbz/TlT43jYevp6XHXR8PHhIPHf72b5wDfDYiaYRE1WiJqHgMD59gIOyE12NfmRmq848nJyRkzO+Oztvb2drF2Cx671tZbobyb5wDfDWSjxh+pNzDQZb39/ZG32+a5lja2Z1+d9Z443RLx/dmm94/+vdPnRHEgdEnqtWvtLC4u7jZHP9eXk5WVNeah5ampqay+/vaHtvDfOxoetZGREbGmD7JRAwB8+ESaqXFHw2dqo0PHZ2otLbefDsIjNvr3jo+cLhA1AIASlZWVbsjC8IMBV69eFWu34NvDu5/hgwYmQNQAAEoEg0E3UHy2xnc9Rx8AmDNnzs1TOPx+vzuOf/7GI3ino6SqIGoAAC00Nja6BwhCoZDY4u2+jv7cjM/g+LhIMzldIGoAgJgCUQMAxBSIGgAgpkDUAAAxxX0btaamJlZcXMxqamrEFvvgFxDz98EvU+nu7hZb7aO5udn9WnDb2trEVvsY/T741wV8ONyXUSsvL3cvvuXnyvBDy6PPsbEJfoIjP4TOLz8ZfUa3baxYscI9HYC/B/514VGwEf59xU9bCL8PU6csADn3ZdTmzp17MwL8kDM/0zna26ZQhJ8XZHPURsPfx4IFC8SavfC4mbpgG8i5L6M2a9asMbc94ScE8hMIbSWWosZnnhs3bhRr9sG/DpmZmTH1NbENRM2B7yogah8+fBeU/wPT29srttgHn6Hx9yG7rxgwy30ZNX7pBv/mC8O/AQcGBsSafcRC1HgI+D8u4y+WthV+jSP/vgIfPPdl1LZs2eL+AHF4DExdWPtBYXvUwl8P24M2+h5ifJbGvy7gg+e+jBqHH/Hk/5LyH6bRszab6OjocHeludOnT2cvvPCCeMUu+Odo/L8//F6WLl0qXrELn8/nfk9xedBM3a4ayLlvowYAiE0QNQBATIGoAQBiCkQNABBTIGoAgJgCUQMAxBSIGgAgpkDUAAAxBaIGAIgpEDUAQEyBqAEAYgpEDQAQUyBqAIAYgrH/B8ZKKg/l1sd4AAAAAElFTkSuQmCC;" vertex="1" parent="1">
          <mxGeometry x="440" y="163.5" width="125.19" height="102.5" as="geometry" />
        </mxCell>
      </root>
    </mxGraphModel>
  </diagram>
</mxfile>
